<mxfile host="app.diagrams.net" modified="2024-04-03T05:45:01.262Z" agent="Mozilla/5.0 (Windows NT 10.0; Win64; x64) AppleWebKit/537.36 (KHTML, like Gecko) Chrome/123.0.0.0 Safari/537.36" etag="ZY7MpnNfKhmJ1mmtT7zH" version="24.2.1" type="github">
  <diagram name="Page-1" id="3v_p0arT9vjumwwHP8JX">
    <mxGraphModel dx="1221" dy="733" grid="1" gridSize="10" guides="1" tooltips="1" connect="1" arrows="1" fold="1" page="1" pageScale="1" pageWidth="827" pageHeight="1169" math="0" shadow="0">
      <root>
        <mxCell id="0" />
        <mxCell id="1" parent="0" />
        <mxCell id="9ZTEv-fv_tr6oAtbYyLb-15" value="" style="edgeStyle=orthogonalEdgeStyle;rounded=0;orthogonalLoop=1;jettySize=auto;html=1;" edge="1" parent="1" source="4gxvxBFfsv67P0vdj7MG-1" target="9ZTEv-fv_tr6oAtbYyLb-14">
          <mxGeometry relative="1" as="geometry" />
        </mxCell>
        <mxCell id="4gxvxBFfsv67P0vdj7MG-1" value="start" style="rounded=1;whiteSpace=wrap;html=1;" parent="1" vertex="1">
          <mxGeometry x="345" y="10" width="120" height="60" as="geometry" />
        </mxCell>
        <mxCell id="9ZTEv-fv_tr6oAtbYyLb-17" value="" style="edgeStyle=orthogonalEdgeStyle;rounded=0;orthogonalLoop=1;jettySize=auto;html=1;" edge="1" parent="1" source="4gxvxBFfsv67P0vdj7MG-2" target="4gxvxBFfsv67P0vdj7MG-3">
          <mxGeometry relative="1" as="geometry" />
        </mxCell>
        <mxCell id="4gxvxBFfsv67P0vdj7MG-2" value="Save current BIT to flash from ltffs.c&lt;div&gt;&lt;br&gt;&lt;/div&gt;&lt;div&gt;fs_save_bit()&lt;br&gt;&lt;/div&gt;" style="whiteSpace=wrap;html=1;aspect=fixed;" parent="1" vertex="1">
          <mxGeometry x="340" y="290" width="130" height="130" as="geometry" />
        </mxCell>
        <mxCell id="4gxvxBFfsv67P0vdj7MG-10" style="edgeStyle=orthogonalEdgeStyle;rounded=0;orthogonalLoop=1;jettySize=auto;html=1;exitX=0.5;exitY=1;exitDx=0;exitDy=0;entryX=0.5;entryY=0;entryDx=0;entryDy=0;" parent="1" source="4gxvxBFfsv67P0vdj7MG-3" target="4gxvxBFfsv67P0vdj7MG-4" edge="1">
          <mxGeometry relative="1" as="geometry" />
        </mxCell>
        <mxCell id="4gxvxBFfsv67P0vdj7MG-3" value="Get BIT from flash and load it to TEST_BIT array in test_flash.c&lt;br&gt;&lt;br&gt;get_test_bbt()" style="whiteSpace=wrap;html=1;aspect=fixed;" parent="1" vertex="1">
          <mxGeometry x="335" y="460" width="140" height="140" as="geometry" />
        </mxCell>
        <mxCell id="4gxvxBFfsv67P0vdj7MG-44" value="" style="edgeStyle=orthogonalEdgeStyle;rounded=0;orthogonalLoop=1;jettySize=auto;html=1;" parent="1" source="4gxvxBFfsv67P0vdj7MG-4" target="4gxvxBFfsv67P0vdj7MG-41" edge="1">
          <mxGeometry relative="1" as="geometry" />
        </mxCell>
        <mxCell id="4gxvxBFfsv67P0vdj7MG-4" value="Set start block&amp;nbsp;&lt;div&gt;&lt;br&gt;&lt;/div&gt;&lt;div&gt;i =&amp;nbsp;WL_START_BLOCK&lt;/div&gt;&lt;div&gt;(block 8)&lt;/div&gt;" style="whiteSpace=wrap;html=1;aspect=fixed;" parent="1" vertex="1">
          <mxGeometry x="335" y="640" width="140" height="140" as="geometry" />
        </mxCell>
        <mxCell id="4gxvxBFfsv67P0vdj7MG-15" style="edgeStyle=orthogonalEdgeStyle;rounded=0;orthogonalLoop=1;jettySize=auto;html=1;" parent="1" source="4gxvxBFfsv67P0vdj7MG-5" edge="1">
          <mxGeometry relative="1" as="geometry">
            <mxPoint x="205" y="810" as="targetPoint" />
          </mxGeometry>
        </mxCell>
        <mxCell id="9ZTEv-fv_tr6oAtbYyLb-5" value="" style="edgeStyle=orthogonalEdgeStyle;rounded=0;orthogonalLoop=1;jettySize=auto;html=1;" edge="1" parent="1" source="4gxvxBFfsv67P0vdj7MG-5" target="9ZTEv-fv_tr6oAtbYyLb-2">
          <mxGeometry relative="1" as="geometry" />
        </mxCell>
        <mxCell id="9ZTEv-fv_tr6oAtbYyLb-20" value="" style="edgeStyle=orthogonalEdgeStyle;rounded=0;orthogonalLoop=1;jettySize=auto;html=1;" edge="1" parent="1" source="4gxvxBFfsv67P0vdj7MG-5" target="9ZTEv-fv_tr6oAtbYyLb-1">
          <mxGeometry relative="1" as="geometry" />
        </mxCell>
        <mxCell id="4gxvxBFfsv67P0vdj7MG-5" value="blk_stat == BLK_FREE/BLK_USED ?" style="rhombus;whiteSpace=wrap;html=1;" parent="1" vertex="1">
          <mxGeometry x="322.5" y="1210" width="165" height="150" as="geometry" />
        </mxCell>
        <mxCell id="4gxvxBFfsv67P0vdj7MG-13" style="edgeStyle=orthogonalEdgeStyle;rounded=0;orthogonalLoop=1;jettySize=auto;html=1;exitX=0.5;exitY=1;exitDx=0;exitDy=0;entryX=0.5;entryY=0;entryDx=0;entryDy=0;" parent="1" source="4gxvxBFfsv67P0vdj7MG-6" target="4gxvxBFfsv67P0vdj7MG-5" edge="1">
          <mxGeometry relative="1" as="geometry" />
        </mxCell>
        <mxCell id="4gxvxBFfsv67P0vdj7MG-6" value="Get status of the i-th block from TEST_BIT&lt;br&gt;&lt;br&gt;blk_stat = test_bit_get_status(i)" style="whiteSpace=wrap;html=1;aspect=fixed;" parent="1" vertex="1">
          <mxGeometry x="335" y="1043" width="140" height="140" as="geometry" />
        </mxCell>
        <mxCell id="4gxvxBFfsv67P0vdj7MG-17" value="" style="endArrow=classic;html=1;rounded=0;" parent="1" edge="1">
          <mxGeometry width="50" height="50" relative="1" as="geometry">
            <mxPoint x="200" y="810" as="sourcePoint" />
            <mxPoint x="400" y="810" as="targetPoint" />
          </mxGeometry>
        </mxCell>
        <mxCell id="4gxvxBFfsv67P0vdj7MG-18" value="NO" style="text;html=1;align=center;verticalAlign=middle;resizable=0;points=[];autosize=1;strokeColor=none;fillColor=none;fontSize=17;" parent="1" vertex="1">
          <mxGeometry x="276.25" y="1250" width="50" height="30" as="geometry" />
        </mxCell>
        <mxCell id="4gxvxBFfsv67P0vdj7MG-20" value="i++" style="text;html=1;align=center;verticalAlign=middle;resizable=0;points=[];autosize=1;strokeColor=none;fillColor=none;fontSize=21;" parent="1" vertex="1">
          <mxGeometry x="200" y="1143" width="50" height="40" as="geometry" />
        </mxCell>
        <mxCell id="4gxvxBFfsv67P0vdj7MG-37" value="" style="endArrow=classic;html=1;rounded=0;" parent="1" edge="1">
          <mxGeometry width="50" height="50" relative="1" as="geometry">
            <mxPoint x="680" y="810" as="sourcePoint" />
            <mxPoint x="410" y="810" as="targetPoint" />
          </mxGeometry>
        </mxCell>
        <mxCell id="4gxvxBFfsv67P0vdj7MG-48" style="edgeStyle=orthogonalEdgeStyle;rounded=0;orthogonalLoop=1;jettySize=auto;html=1;exitX=0.16;exitY=1.056;exitDx=0;exitDy=0;exitPerimeter=0;" parent="1" source="4gxvxBFfsv67P0vdj7MG-49" edge="1">
          <mxGeometry relative="1" as="geometry">
            <mxPoint x="743" y="1560" as="targetPoint" />
            <mxPoint x="550" y="720" as="sourcePoint" />
          </mxGeometry>
        </mxCell>
        <mxCell id="9ZTEv-fv_tr6oAtbYyLb-18" value="" style="edgeStyle=orthogonalEdgeStyle;rounded=0;orthogonalLoop=1;jettySize=auto;html=1;" edge="1" parent="1" source="4gxvxBFfsv67P0vdj7MG-41" target="4gxvxBFfsv67P0vdj7MG-6">
          <mxGeometry relative="1" as="geometry" />
        </mxCell>
        <mxCell id="4gxvxBFfsv67P0vdj7MG-41" value="&lt;br&gt;&lt;br&gt;i &amp;lt; BLOCK_CNT (1024)&lt;br&gt;?" style="rhombus;whiteSpace=wrap;html=1;" parent="1" vertex="1">
          <mxGeometry x="322.5" y="850" width="165" height="160" as="geometry" />
        </mxCell>
        <mxCell id="4gxvxBFfsv67P0vdj7MG-47" value="&lt;font style=&quot;font-size: 16px;&quot;&gt;Yes&lt;/font&gt;" style="text;html=1;align=center;verticalAlign=middle;resizable=0;points=[];autosize=1;strokeColor=none;fillColor=none;" parent="1" vertex="1">
          <mxGeometry x="410" y="998" width="50" height="30" as="geometry" />
        </mxCell>
        <mxCell id="4gxvxBFfsv67P0vdj7MG-49" value="&lt;font style=&quot;font-size: 16px;&quot;&gt;NO&lt;/font&gt;" style="text;html=1;align=center;verticalAlign=middle;resizable=0;points=[];autosize=1;strokeColor=none;fillColor=none;" parent="1" vertex="1">
          <mxGeometry x="475" y="900" width="50" height="30" as="geometry" />
        </mxCell>
        <mxCell id="4gxvxBFfsv67P0vdj7MG-55" value="" style="edgeStyle=orthogonalEdgeStyle;rounded=0;orthogonalLoop=1;jettySize=auto;html=1;" parent="1" source="4gxvxBFfsv67P0vdj7MG-51" target="4gxvxBFfsv67P0vdj7MG-53" edge="1">
          <mxGeometry relative="1" as="geometry" />
        </mxCell>
        <mxCell id="4gxvxBFfsv67P0vdj7MG-51" value="&lt;br&gt;due to four file create operation, used block count will be increased by 4 and free block count be decreased by 4&lt;br&gt;&lt;br&gt;if ((ub_cnt + 4 != curr_ub_cnt) &amp;amp;&amp;amp; (fb_cnt - 4 != curr_fb_cnt)), make rc = 1&lt;div&gt;&lt;br/&gt;&lt;/div&gt;" style="rounded=0;whiteSpace=wrap;html=1;" parent="1" vertex="1">
          <mxGeometry x="296.25" y="1500" width="233.75" height="120" as="geometry" />
        </mxCell>
        <mxCell id="4gxvxBFfsv67P0vdj7MG-52" value="" style="endArrow=classic;html=1;rounded=0;entryX=1;entryY=0.5;entryDx=0;entryDy=0;" parent="1" target="4gxvxBFfsv67P0vdj7MG-51" edge="1">
          <mxGeometry width="50" height="50" relative="1" as="geometry">
            <mxPoint x="740" y="1560" as="sourcePoint" />
            <mxPoint x="590" y="1460" as="targetPoint" />
          </mxGeometry>
        </mxCell>
        <mxCell id="4gxvxBFfsv67P0vdj7MG-58" value="" style="edgeStyle=orthogonalEdgeStyle;rounded=0;orthogonalLoop=1;jettySize=auto;html=1;" parent="1" source="4gxvxBFfsv67P0vdj7MG-53" target="4gxvxBFfsv67P0vdj7MG-56" edge="1">
          <mxGeometry relative="1" as="geometry" />
        </mxCell>
        <mxCell id="4gxvxBFfsv67P0vdj7MG-59" value="" style="edgeStyle=orthogonalEdgeStyle;rounded=0;orthogonalLoop=1;jettySize=auto;html=1;" parent="1" source="4gxvxBFfsv67P0vdj7MG-53" target="4gxvxBFfsv67P0vdj7MG-57" edge="1">
          <mxGeometry relative="1" as="geometry" />
        </mxCell>
        <mxCell id="4gxvxBFfsv67P0vdj7MG-53" value="&lt;font style=&quot;font-size: 16px;&quot;&gt;rc ?&lt;/font&gt;" style="rhombus;whiteSpace=wrap;html=1;" parent="1" vertex="1">
          <mxGeometry x="333.13" y="1650" width="160" height="150" as="geometry" />
        </mxCell>
        <mxCell id="4gxvxBFfsv67P0vdj7MG-61" style="edgeStyle=orthogonalEdgeStyle;rounded=0;orthogonalLoop=1;jettySize=auto;html=1;" parent="1" source="4gxvxBFfsv67P0vdj7MG-56" edge="1">
          <mxGeometry relative="1" as="geometry">
            <mxPoint x="215" y="1890" as="targetPoint" />
          </mxGeometry>
        </mxCell>
        <mxCell id="4gxvxBFfsv67P0vdj7MG-56" value="Return&amp;nbsp;TC_FAIL" style="rounded=0;whiteSpace=wrap;html=1;" parent="1" vertex="1">
          <mxGeometry x="150" y="1682.5" width="130" height="85" as="geometry" />
        </mxCell>
        <mxCell id="4gxvxBFfsv67P0vdj7MG-62" style="edgeStyle=orthogonalEdgeStyle;rounded=0;orthogonalLoop=1;jettySize=auto;html=1;" parent="1" source="4gxvxBFfsv67P0vdj7MG-57" edge="1">
          <mxGeometry relative="1" as="geometry">
            <mxPoint x="595" y="1890" as="targetPoint" />
          </mxGeometry>
        </mxCell>
        <mxCell id="4gxvxBFfsv67P0vdj7MG-57" value="Return&amp;nbsp;TC_PASS" style="rounded=0;whiteSpace=wrap;html=1;" parent="1" vertex="1">
          <mxGeometry x="530" y="1682.5" width="130" height="85" as="geometry" />
        </mxCell>
        <mxCell id="4gxvxBFfsv67P0vdj7MG-60" value="Stop" style="rounded=1;whiteSpace=wrap;html=1;" parent="1" vertex="1">
          <mxGeometry x="347.5" y="1860" width="120" height="60" as="geometry" />
        </mxCell>
        <mxCell id="4gxvxBFfsv67P0vdj7MG-63" value="" style="endArrow=classic;html=1;rounded=0;entryX=0;entryY=0.5;entryDx=0;entryDy=0;" parent="1" target="4gxvxBFfsv67P0vdj7MG-60" edge="1">
          <mxGeometry width="50" height="50" relative="1" as="geometry">
            <mxPoint x="220" y="1890" as="sourcePoint" />
            <mxPoint x="590" y="1580" as="targetPoint" />
          </mxGeometry>
        </mxCell>
        <mxCell id="4gxvxBFfsv67P0vdj7MG-64" value="" style="endArrow=classic;html=1;rounded=0;entryX=1;entryY=0.5;entryDx=0;entryDy=0;" parent="1" target="4gxvxBFfsv67P0vdj7MG-60" edge="1">
          <mxGeometry width="50" height="50" relative="1" as="geometry">
            <mxPoint x="590" y="1890" as="sourcePoint" />
            <mxPoint x="590" y="1580" as="targetPoint" />
          </mxGeometry>
        </mxCell>
        <mxCell id="4gxvxBFfsv67P0vdj7MG-65" value="&lt;font style=&quot;font-size: 16px;&quot;&gt;1&lt;/font&gt;" style="text;html=1;align=center;verticalAlign=middle;resizable=0;points=[];autosize=1;strokeColor=none;fillColor=none;" parent="1" vertex="1">
          <mxGeometry x="306.25" y="1690" width="30" height="30" as="geometry" />
        </mxCell>
        <mxCell id="4gxvxBFfsv67P0vdj7MG-66" value="&lt;font style=&quot;font-size: 16px;&quot;&gt;0&lt;/font&gt;" style="text;html=1;align=center;verticalAlign=middle;resizable=0;points=[];autosize=1;strokeColor=none;fillColor=none;" parent="1" vertex="1">
          <mxGeometry x="478.75" y="1690" width="30" height="30" as="geometry" />
        </mxCell>
        <mxCell id="9ZTEv-fv_tr6oAtbYyLb-10" value="" style="edgeStyle=orthogonalEdgeStyle;rounded=0;orthogonalLoop=1;jettySize=auto;html=1;" edge="1" parent="1">
          <mxGeometry relative="1" as="geometry">
            <mxPoint x="460" y="1430" as="sourcePoint" />
            <mxPoint x="680" y="810" as="targetPoint" />
          </mxGeometry>
        </mxCell>
        <mxCell id="9ZTEv-fv_tr6oAtbYyLb-1" value="curr_fb_cnt++" style="rounded=0;whiteSpace=wrap;html=1;" vertex="1" parent="1">
          <mxGeometry x="345" y="1400" width="120" height="60" as="geometry" />
        </mxCell>
        <mxCell id="9ZTEv-fv_tr6oAtbYyLb-8" value="" style="edgeStyle=orthogonalEdgeStyle;rounded=0;orthogonalLoop=1;jettySize=auto;html=1;" edge="1" parent="1" source="9ZTEv-fv_tr6oAtbYyLb-2">
          <mxGeometry relative="1" as="geometry">
            <mxPoint x="600" y="810" as="targetPoint" />
          </mxGeometry>
        </mxCell>
        <mxCell id="9ZTEv-fv_tr6oAtbYyLb-2" value="curr_ub_cnt++" style="rounded=0;whiteSpace=wrap;html=1;" vertex="1" parent="1">
          <mxGeometry x="540" y="1255" width="120" height="60" as="geometry" />
        </mxCell>
        <mxCell id="9ZTEv-fv_tr6oAtbYyLb-4" value="BLK_FREE" style="text;html=1;align=center;verticalAlign=middle;resizable=0;points=[];autosize=1;strokeColor=none;fillColor=none;" vertex="1" parent="1">
          <mxGeometry x="407.5" y="1360" width="80" height="30" as="geometry" />
        </mxCell>
        <mxCell id="9ZTEv-fv_tr6oAtbYyLb-6" value="BLK_USED" style="text;html=1;align=center;verticalAlign=middle;resizable=0;points=[];autosize=1;strokeColor=none;fillColor=none;" vertex="1" parent="1">
          <mxGeometry x="460" y="1250" width="90" height="30" as="geometry" />
        </mxCell>
        <mxCell id="9ZTEv-fv_tr6oAtbYyLb-11" value="i++" style="text;html=1;align=center;verticalAlign=middle;resizable=0;points=[];autosize=1;strokeColor=none;fillColor=none;fontSize=21;" vertex="1" parent="1">
          <mxGeometry x="630" y="1143" width="50" height="40" as="geometry" />
        </mxCell>
        <mxCell id="9ZTEv-fv_tr6oAtbYyLb-12" value="i++" style="text;html=1;align=center;verticalAlign=middle;resizable=0;points=[];autosize=1;strokeColor=none;fillColor=none;fontSize=21;" vertex="1" parent="1">
          <mxGeometry x="550" y="1143" width="50" height="40" as="geometry" />
        </mxCell>
        <mxCell id="9ZTEv-fv_tr6oAtbYyLb-16" value="" style="edgeStyle=orthogonalEdgeStyle;rounded=0;orthogonalLoop=1;jettySize=auto;html=1;" edge="1" parent="1" source="9ZTEv-fv_tr6oAtbYyLb-14" target="4gxvxBFfsv67P0vdj7MG-2">
          <mxGeometry relative="1" as="geometry" />
        </mxCell>
        <mxCell id="9ZTEv-fv_tr6oAtbYyLb-14" value="&lt;div&gt;Create four files&lt;br&gt;&lt;br&gt;file_create(&lt;/div&gt;&lt;div&gt;&quot;/data/file_name.txt&quot;, &quot;hello&quot;)&lt;br&gt;&lt;/div&gt;" style="whiteSpace=wrap;html=1;aspect=fixed;" vertex="1" parent="1">
          <mxGeometry x="340" y="120" width="130" height="130" as="geometry" />
        </mxCell>
      </root>
    </mxGraphModel>
  </diagram>
</mxfile>
